<mxfile host="app.diagrams.net" modified="2023-04-05T14:20:32.247Z" agent="Mozilla/5.0 (Windows NT 10.0; Win64; x64) AppleWebKit/537.36 (KHTML, like Gecko) Chrome/111.0.0.0 Safari/537.36 Edg/111.0.1661.62" etag="ev3HuLCVtRIWwxdhNkey" version="21.1.4" type="device">
  <diagram id="39f-_u-m1g1IPYjlEVk5" name="Trang-1">
    <mxGraphModel dx="1235" dy="-533" grid="1" gridSize="10" guides="1" tooltips="1" connect="1" arrows="1" fold="1" page="1" pageScale="1" pageWidth="827" pageHeight="1169" math="0" shadow="0">
      <root>
        <mxCell id="0" />
        <mxCell id="1" parent="0" />
        <mxCell id="WfWpO_GH9tdGwcml0zEw-1" value="Begin&lt;br&gt;&amp;nbsp; &amp;nbsp;Input N&lt;br&gt;&amp;nbsp; &amp;nbsp; &amp;nbsp; &amp;nbsp; &amp;nbsp; &amp;nbsp; a1, a2, a3, ai...aN&lt;br&gt;&amp;nbsp; &amp;nbsp;max = a1&lt;br&gt;&amp;nbsp; &amp;nbsp;while ( i =&amp;lt; N )&lt;br&gt;&amp;nbsp; &amp;nbsp;do&lt;br&gt;&amp;nbsp; &amp;nbsp; &amp;nbsp; If ai &amp;gt; max then&lt;br&gt;&amp;nbsp; &amp;nbsp; &amp;nbsp; &amp;nbsp; &amp;nbsp; max = ai&lt;br&gt;&amp;nbsp; &amp;nbsp; &amp;nbsp; &amp;nbsp; print max&lt;br&gt;&amp;nbsp; &amp;nbsp; &amp;nbsp; Else i = i + 1&lt;br&gt;&amp;nbsp; &amp;nbsp; &amp;nbsp; End if&lt;br&gt;&amp;nbsp; &amp;nbsp;End do&lt;br&gt;End&lt;br&gt;&amp;nbsp; &amp;nbsp; &amp;nbsp; &amp;nbsp; &amp;nbsp;&amp;nbsp;&lt;br&gt;&amp;nbsp; &amp;nbsp;&lt;br&gt;&amp;nbsp; &amp;nbsp;" style="text;html=1;strokeColor=none;fillColor=none;align=left;verticalAlign=middle;whiteSpace=wrap;rounded=0;" vertex="1" parent="1">
          <mxGeometry x="40" y="1240" width="210" height="130" as="geometry" />
        </mxCell>
        <mxCell id="WfWpO_GH9tdGwcml0zEw-10" value="" style="edgeStyle=orthogonalEdgeStyle;rounded=0;orthogonalLoop=1;jettySize=auto;html=1;entryX=0.5;entryY=0;entryDx=0;entryDy=0;" edge="1" parent="1" source="WfWpO_GH9tdGwcml0zEw-2" target="WfWpO_GH9tdGwcml0zEw-3">
          <mxGeometry relative="1" as="geometry">
            <Array as="points" />
          </mxGeometry>
        </mxCell>
        <mxCell id="WfWpO_GH9tdGwcml0zEw-2" value="Begin" style="ellipse;whiteSpace=wrap;html=1;" vertex="1" parent="1">
          <mxGeometry x="280" y="1180" width="100" height="60" as="geometry" />
        </mxCell>
        <mxCell id="WfWpO_GH9tdGwcml0zEw-13" style="edgeStyle=orthogonalEdgeStyle;rounded=0;orthogonalLoop=1;jettySize=auto;html=1;entryX=0.5;entryY=0;entryDx=0;entryDy=0;" edge="1" parent="1" source="WfWpO_GH9tdGwcml0zEw-3" target="WfWpO_GH9tdGwcml0zEw-4">
          <mxGeometry relative="1" as="geometry" />
        </mxCell>
        <mxCell id="WfWpO_GH9tdGwcml0zEw-3" value="N&lt;br&gt;a1,a2,a3,ai...aN" style="shape=parallelogram;perimeter=parallelogramPerimeter;whiteSpace=wrap;html=1;fixedSize=1;" vertex="1" parent="1">
          <mxGeometry x="270" y="1270" width="120" height="60" as="geometry" />
        </mxCell>
        <mxCell id="WfWpO_GH9tdGwcml0zEw-14" style="edgeStyle=orthogonalEdgeStyle;rounded=0;orthogonalLoop=1;jettySize=auto;html=1;entryX=0.5;entryY=0;entryDx=0;entryDy=0;" edge="1" parent="1" source="WfWpO_GH9tdGwcml0zEw-4" target="WfWpO_GH9tdGwcml0zEw-5">
          <mxGeometry relative="1" as="geometry" />
        </mxCell>
        <mxCell id="WfWpO_GH9tdGwcml0zEw-4" value="max = a1&lt;br&gt;i = 2" style="rounded=0;whiteSpace=wrap;html=1;" vertex="1" parent="1">
          <mxGeometry x="270" y="1350" width="120" height="60" as="geometry" />
        </mxCell>
        <mxCell id="WfWpO_GH9tdGwcml0zEw-15" style="edgeStyle=orthogonalEdgeStyle;rounded=0;orthogonalLoop=1;jettySize=auto;html=1;" edge="1" parent="1" source="WfWpO_GH9tdGwcml0zEw-5" target="WfWpO_GH9tdGwcml0zEw-7">
          <mxGeometry relative="1" as="geometry" />
        </mxCell>
        <mxCell id="WfWpO_GH9tdGwcml0zEw-16" style="edgeStyle=orthogonalEdgeStyle;rounded=0;orthogonalLoop=1;jettySize=auto;html=1;entryX=0;entryY=0.5;entryDx=0;entryDy=0;" edge="1" parent="1" source="WfWpO_GH9tdGwcml0zEw-5" target="WfWpO_GH9tdGwcml0zEw-6">
          <mxGeometry relative="1" as="geometry" />
        </mxCell>
        <mxCell id="WfWpO_GH9tdGwcml0zEw-5" value="i=&amp;lt;N" style="rhombus;whiteSpace=wrap;html=1;" vertex="1" parent="1">
          <mxGeometry x="290" y="1440" width="80" height="80" as="geometry" />
        </mxCell>
        <mxCell id="WfWpO_GH9tdGwcml0zEw-22" value="" style="edgeStyle=orthogonalEdgeStyle;rounded=0;orthogonalLoop=1;jettySize=auto;html=1;" edge="1" parent="1" source="WfWpO_GH9tdGwcml0zEw-6" target="WfWpO_GH9tdGwcml0zEw-21">
          <mxGeometry relative="1" as="geometry" />
        </mxCell>
        <mxCell id="WfWpO_GH9tdGwcml0zEw-6" value="print max" style="shape=parallelogram;perimeter=parallelogramPerimeter;whiteSpace=wrap;html=1;fixedSize=1;" vertex="1" parent="1">
          <mxGeometry x="440" y="1450" width="120" height="60" as="geometry" />
        </mxCell>
        <mxCell id="WfWpO_GH9tdGwcml0zEw-17" style="edgeStyle=orthogonalEdgeStyle;rounded=0;orthogonalLoop=1;jettySize=auto;html=1;entryX=0.5;entryY=0;entryDx=0;entryDy=0;" edge="1" parent="1" source="WfWpO_GH9tdGwcml0zEw-7" target="WfWpO_GH9tdGwcml0zEw-8">
          <mxGeometry relative="1" as="geometry" />
        </mxCell>
        <mxCell id="WfWpO_GH9tdGwcml0zEw-28" value="" style="edgeStyle=orthogonalEdgeStyle;rounded=0;orthogonalLoop=1;jettySize=auto;html=1;" edge="1" parent="1" source="WfWpO_GH9tdGwcml0zEw-7">
          <mxGeometry relative="1" as="geometry">
            <mxPoint x="330" y="1750" as="targetPoint" />
            <Array as="points">
              <mxPoint x="240" y="1600" />
              <mxPoint x="240" y="1750" />
            </Array>
          </mxGeometry>
        </mxCell>
        <mxCell id="WfWpO_GH9tdGwcml0zEw-7" value="ai &amp;gt; max" style="rhombus;whiteSpace=wrap;html=1;" vertex="1" parent="1">
          <mxGeometry x="290" y="1560" width="80" height="80" as="geometry" />
        </mxCell>
        <mxCell id="WfWpO_GH9tdGwcml0zEw-19" value="" style="edgeStyle=orthogonalEdgeStyle;rounded=0;orthogonalLoop=1;jettySize=auto;html=1;" edge="1" parent="1" source="WfWpO_GH9tdGwcml0zEw-8" target="WfWpO_GH9tdGwcml0zEw-9">
          <mxGeometry relative="1" as="geometry" />
        </mxCell>
        <mxCell id="WfWpO_GH9tdGwcml0zEw-8" value="max = ai" style="rounded=0;whiteSpace=wrap;html=1;" vertex="1" parent="1">
          <mxGeometry x="270" y="1670" width="120" height="60" as="geometry" />
        </mxCell>
        <mxCell id="WfWpO_GH9tdGwcml0zEw-20" style="edgeStyle=orthogonalEdgeStyle;rounded=0;orthogonalLoop=1;jettySize=auto;html=1;" edge="1" parent="1" source="WfWpO_GH9tdGwcml0zEw-9">
          <mxGeometry relative="1" as="geometry">
            <mxPoint x="330" y="1420" as="targetPoint" />
            <Array as="points">
              <mxPoint x="180" y="1800" />
              <mxPoint x="180" y="1420" />
            </Array>
          </mxGeometry>
        </mxCell>
        <mxCell id="WfWpO_GH9tdGwcml0zEw-9" value="i = i + 1" style="rounded=0;whiteSpace=wrap;html=1;" vertex="1" parent="1">
          <mxGeometry x="270" y="1770" width="120" height="60" as="geometry" />
        </mxCell>
        <mxCell id="WfWpO_GH9tdGwcml0zEw-21" value="End" style="ellipse;whiteSpace=wrap;html=1;" vertex="1" parent="1">
          <mxGeometry x="440" y="1560" width="120" height="80" as="geometry" />
        </mxCell>
        <mxCell id="WfWpO_GH9tdGwcml0zEw-23" value="Yes" style="text;html=1;strokeColor=none;fillColor=none;align=center;verticalAlign=middle;whiteSpace=wrap;rounded=0;" vertex="1" parent="1">
          <mxGeometry x="380" y="1450" width="60" height="30" as="geometry" />
        </mxCell>
        <mxCell id="WfWpO_GH9tdGwcml0zEw-24" value="Yes" style="text;html=1;strokeColor=none;fillColor=none;align=center;verticalAlign=middle;whiteSpace=wrap;rounded=0;" vertex="1" parent="1">
          <mxGeometry x="320" y="1640" width="60" height="30" as="geometry" />
        </mxCell>
        <mxCell id="WfWpO_GH9tdGwcml0zEw-26" value="No" style="text;html=1;strokeColor=none;fillColor=none;align=center;verticalAlign=middle;whiteSpace=wrap;rounded=0;" vertex="1" parent="1">
          <mxGeometry x="240" y="1570" width="40" height="30" as="geometry" />
        </mxCell>
        <mxCell id="WfWpO_GH9tdGwcml0zEw-27" value="No" style="text;html=1;strokeColor=none;fillColor=none;align=center;verticalAlign=middle;whiteSpace=wrap;rounded=0;" vertex="1" parent="1">
          <mxGeometry x="320" y="1520" width="60" height="30" as="geometry" />
        </mxCell>
      </root>
    </mxGraphModel>
  </diagram>
</mxfile>
